<svg xmlns="http://www.w3.org/2000/svg" width="290.79" height="343.89" viewBox="0 0 319.158 377.438"><path fill="#D92231" d="M0 0h319.158v319.16H0z"/><path fill="#D92231" d="M319.158 17.534L166.635 124.337 314.81 0h-1.111L166.19 123.774 289.967 0h-1.014L165.659 123.294 269.117 0h-.941l-103.07 122.838L251.117 0h-.876l-85.708 122.41L235.204 0h-.829l-70.444 122.016L220.825 0h-.787l-56.805 121.818L207.571 0h-.759l-44.197 121.417L195.153 0h-.747l-32.523 121.394L183.286 0h-.726l-21.372 121.212L171.792 0h-.721l-10.59 121.048V0h-.715v121.217L149.157 0h-.716l10.598 121.135L137.679 0h-.732l21.386 121.263L125.843 0h-.743l32.548 121.488L113.431 0h-.761l44.329 121.788L100.208 0h-.788l56.919 122.071L85.859 0h-.825l70.685 122.429L69.998 0h-.875l85.978 122.793L52.067 0h-.937l103.439 123.278L31.294 0h-1.013l123.776 123.774L6.547 0H5.435l148.197 124.353L0 16.777v.875l153.223 107.292L0 36.476v.828l152.779 88.21L0 54.271v.788l152.568 71.146L0 70.677v.761l152.292 55.432L0 86.061v.741l152.042 40.738L0 100.73v.728l152.031 26.808L0 114.966v.719l151.869 13.287H0v.716h151.965L0 142.981v.719l151.965-13.296L0 157.202v.725l152.159-26.828L0 171.869v.742l152.231-40.79L0 187.227v.763l152.568-55.53L0 203.606v.79l152.799-71.253L0 221.362v.83l153.238-88.476L0 241.016v.874l153.612-107.561L0 263.222v.933l154.088-129.291L0 288.953v1.008l154.558-154.552L.367 319.16h.937l153.807-183.294L26.765 319.16h.873l128.071-182.9-105.602 182.9h.825l105.417-182.587L71.216 319.16h.788l84.943-182.168L90.641 319.16h.762l66.275-182.079-48.787 182.079h.742l48.691-181.723-32.042 181.723h.727l32.03-181.659-15.893 181.659h.722l15.898-181.704V319.16h.715V137.627l15.884 181.533h.721l-15.903-181.739 32.046 181.739h.732l-32.073-181.856 48.728 181.856h.74l-48.767-182.01 66.247 182.01h.763l-66.314-182.199 84.952 182.199h.793l-85.111-182.532L269.301 319.16h.829L164.542 136.281 292.597 319.16h.872L165.101 135.825 318.934 319.16h.224v-.847l-153.49-182.925 153.49 153.492v-1.013L166.16 134.864l152.998 128.383v-.934L166.656 134.348l152.502 106.787v-.875L167.076 133.764l152.082 87.811v-.825l-151.817-87.656 151.817 70.794v-.791L167.74 132.488 319.158 187.6v-.762L167.96 131.805l151.198 40.514v-.741l-151.093-40.484 151.093 26.645v-.729l-150.854-26.601 150.854 13.197v-.721l-150.88-13.197h150.88v-.716H168.375l150.783-13.192v-.717l-150.921 13.203 150.921-26.615v-.722l-150.973 26.618 150.973-40.453v-.741L167.894 126.88l151.264-55.049v-.762L167.74 126.176l151.418-70.611v-.788l-151.796 70.788 151.796-87.647v-.824l-152.073 87.801L319.158 18.409z"/><path d="M34.065 284.729v-36.788h-7.519v44.184H55.57v-7.396zm38.599-26.68c-4.479 0-8.092.945-11.368 2.975l-.411.253L63.817 267l.475-.267c2.428-1.362 4.955-1.969 8.187-1.969 3.648 0 5.577 1.715 5.577 4.964v1.624c-1.793-.652-4.038-.982-6.685-.982-8.393 0-13.403 4.113-13.403 11 0 7.898 5.896 11.436 11.739 11.436 2.935 0 5.919-1.158 8.35-3.217v2.536h7.271v-22.709c-.001-7.226-4.617-11.367-12.664-11.367zm-1.48 18.858c2.875 0 5.071.39 6.871 1.223v4.115c-1.446 1.902-4.226 3.777-7.302 3.777-3.675 0-5.7-1.716-5.7-4.837.001-2.639 2.35-4.278 6.131-4.278zm39.338-7.703v7.27h7.021c-.134 5.525-3.578 8.812-9.269 8.812-7.068 0-11.122-5.559-11.122-15.251 0-9.693 4.054-15.25 11.122-15.25 4.044 0 6.283 1.273 8.554 4.869l.277.438 6.537-4.053-.247-.438c-3.168-5.608-8.115-8.338-15.122-8.338-11.223 0-18.764 9.149-18.764 22.77 0 13.618 7.541 22.77 18.764 22.77 10.274 0 16.915-7.099 16.915-18.089v-5.512l-14.666.002zm39.122-10.475v19.438c0 4.987-2.176 7.731-6.13 7.731-2.854 0-6.131-.948-6.131-8.347v-18.824h-7.395V277.8c0 9.815 4.166 15.006 12.046 15.006 2.959 0 5.79-1.09 7.609-2.859v2.18h7.397V258.73l-7.396-.001zm27.325-.68c-4.479 0-8.091.945-11.368 2.975l-.41.253 2.93 5.725.477-.267c2.428-1.362 4.952-1.969 8.188-1.969 3.646 0 5.576 1.715 5.576 4.964v1.624c-1.793-.652-4.035-.982-6.686-.982-8.394 0-13.404 4.113-13.404 11 0 7.898 5.896 11.436 11.74 11.436 2.936 0 5.918-1.158 8.35-3.217v2.536h7.271v-22.709c-.001-7.228-4.616-11.369-12.664-11.369zm-1.479 18.858c2.874 0 5.069.39 6.87 1.223v4.115c-1.447 1.902-4.229 3.777-7.303 3.777-3.675 0-5.697-1.716-5.697-4.837 0-2.639 2.348-4.278 6.13-4.278zm40.709-17.414c-1.496-.999-3.277-1.444-5.778-1.444-2.613 0-5.125 1.059-6.865 2.827v-2.146h-7.396v33.396h7.396v-19.011c0-3.555 1.01-7.792 5.82-7.792 1.814 0 3.195.33 4.615 1.105l.58.317 1.941-7.043-.313-.209zm22.407-9.861v11.401c-1.758-1.525-4.504-2.984-7.607-2.984-6.125 0-13.277 4.413-13.277 16.855 0 11.377 4.729 17.9 12.971 17.9 2.801 0 5.338-.999 7.916-3.131v2.45h7.336v-46.307l-7.339 3.816zm-6.744 36.267c-4.541 0-6.748-3.657-6.748-11.185 0-6.479 2.188-9.763 6.505-9.763 2.793 0 5.58 1.998 7.052 3.903v13.255c-1.938 2.378-4.472 3.79-6.809 3.79zm24.889-30.316c2.489 0 4.592-2.103 4.592-4.592 0-2.564-2.06-4.651-4.592-4.651a4.66 4.66 0 00-4.654 4.651c0 2.532 2.09 4.592 4.654 4.592zm-3.729 3.146h7.396v33.396h-7.396zm26.898-.68c-4.479 0-8.094.945-11.37 2.975l-.41.253 2.935 5.725.474-.267c2.43-1.362 4.954-1.969 8.188-1.969 3.646 0 5.574 1.715 5.574 4.964v1.624c-1.789-.652-4.033-.982-6.683-.982-8.396 0-13.403 4.113-13.403 11 0 7.898 5.896 11.436 11.738 11.436 2.934 0 5.919-1.158 8.348-3.217v2.536h7.274v-22.709c-.002-7.228-4.619-11.369-12.665-11.369zm-1.482 18.858c2.877 0 5.071.39 6.869 1.223v4.115c-1.443 1.902-4.222 3.777-7.301 3.777-3.676 0-5.699-1.716-5.699-4.837.003-2.639 2.35-4.278 6.131-4.278z" fill="#FFF"/><path d="M18.37 363.383l-.143.227c-1.36 2.153-2.982 3.071-5.429 3.071-4.216 0-6.634-3.327-6.634-9.132 0-5.803 2.418-9.13 6.634-9.13 2.383 0 3.717.777 5.099 2.964l.14.221 3.845-2.398-.124-.217c-1.876-3.325-4.806-4.941-8.959-4.941-6.651 0-11.121 5.428-11.121 13.503 0 8.077 4.47 13.506 11.121 13.506 3.957 0 7.178-1.791 9.068-5.049l.124-.211-3.621-2.414zm14.817-12.918c-5.292 0-8.846 4.145-8.846 10.313 0 6.051 3.593 10.276 8.736 10.276 5.357 0 8.956-4.173 8.956-10.385 0-6.007-3.638-10.204-8.846-10.204zm.037 16.471c-2.845 0-4.543-2.344-4.543-6.267 0-3.697 1.71-6.088 4.359-6.088 2.87 0 4.653 2.374 4.653 6.195 0 3.569-1.88 6.16-4.469 6.16zm32.384-16.471c-2.937 0-4.511 1.041-5.872 2.633-1.125-1.771-2.87-2.633-5.317-2.633-1.742 0-3.278.633-4.324 1.756v-1.353h-4.303v19.781h4.303v-11.525c0-3.087 1.159-4.652 3.443-4.652 2.446 0 3.444 1.453 3.444 5.021v11.156h4.303v-11.525c0-3.087 1.158-4.652 3.442-4.652 2.447 0 3.444 1.453 3.444 5.021v11.156h4.301V359.35c.001-5.895-2.309-8.885-6.864-8.885zm31.209 0c-2.938 0-4.512 1.041-5.872 2.633-1.126-1.771-2.87-2.633-5.317-2.633-1.742 0-3.278.633-4.324 1.756v-1.353h-4.303v19.781h4.303v-11.525c0-3.087 1.159-4.652 3.444-4.652 2.446 0 3.442 1.453 3.442 5.021v11.156h4.304v-11.525c0-3.087 1.158-4.652 3.441-4.652 2.446 0 3.444 1.453 3.444 5.021v11.156h4.302V359.35c.001-5.895-2.309-8.885-6.864-8.885zm22.948.403v11.524c0 3.001-1.313 4.654-3.699 4.654-2.56 0-3.702-1.55-3.702-5.022v-11.156h-4.303v11.306c0 5.811 2.463 8.881 7.123 8.881 1.794 0 3.511-.68 4.581-1.771v1.366h4.303v-19.781h-4.303v-.001zm17.862-.403c-1.797 0-3.511.679-4.581 1.771v-1.368h-4.303v19.781h4.303v-11.525c0-2.999 1.313-4.652 3.699-4.652 2.561 0 3.701 1.549 3.701 5.021v11.156h4.302V359.35c.001-5.814-2.462-8.885-7.121-8.885zm11.838.403h4.301v19.781h-4.301zm2.169-1.973c1.455 0 2.684-1.229 2.684-2.681 0-1.501-1.205-2.722-2.684-2.722-1.5 0-2.72 1.221-2.72 2.722.001 1.478 1.22 2.681 2.72 2.681zm16.778 17.449c-.634.369-1.702.74-2.657.74-1.165 0-1.718-.308-1.718-2.052v-10.194h4.767v-3.97h-4.767v-7.659l-4.23 2.263v5.396h-2.751v3.97h2.751v10.854c0 3.457 1.629 5.36 4.59 5.36 1.416 0 2.778-.322 3.967-1.106l.509-3.867-.461.265zm16.375-15.476l-3.327 9.679c-.463 1.297-1.062 3.278-1.457 4.621a82.482 82.482 0 00-1.462-4.691l-3.212-9.607h-4.713l7.214 19.063-2.929 7.506h4.565l9.88-26.568h-4.56v-.003zm30.911 12.515l-.145.227c-1.354 2.153-2.979 3.071-5.428 3.071-4.217 0-6.636-3.327-6.636-9.132 0-5.803 2.419-9.13 6.636-9.13 2.382 0 3.716.777 5.098 2.964l.141.221 3.845-2.398-.123-.217c-1.877-3.325-4.808-4.941-8.959-4.941-6.647 0-11.117 5.428-11.117 13.503 0 8.077 4.47 13.506 11.117 13.506 3.957 0 7.177-1.791 9.069-5.049l.123-.211-3.621-2.414zm14.084-12.918c-5.291 0-8.846 4.145-8.846 10.313 0 6.051 3.592 10.276 8.737 10.276 5.354 0 8.954-4.173 8.954-10.385.002-6.007-3.635-10.204-8.845-10.204zm.037 16.471c-2.844 0-4.545-2.344-4.545-6.267 0-3.697 1.711-6.088 4.361-6.088 2.869 0 4.654 2.374 4.654 6.195.002 3.569-1.878 6.16-4.47 6.16zm12.024-21.469v25.182h4.299v-27.435zm9.349 0v25.182h4.298v-27.435zm16.948 4.998c-5.363 0-8.695 3.951-8.695 10.313 0 6.051 3.531 10.276 8.589 10.276 2.799 0 4.965-.827 6.821-2.604l.188-.179-2.572-2.78-.189.141c-1.389 1.028-2.629 1.489-4.026 1.489-2.446 0-4.132-1.774-4.547-4.763h12.435l.256-.2.023-.235c.038-.399.09-.945.09-1.549-.004-6.021-3.287-9.909-8.373-9.909zm-.256 3.932c3.137 0 4.062 2.287 4.268 4.323h-8.37c.376-2.79 1.828-4.323 4.102-4.323zm23.98-3.529v1.421c-1.014-.925-2.653-1.824-4.543-1.824-3.91 0-7.856 3.087-7.856 9.984 0 6.739 2.796 10.604 7.673 10.604 1.662 0 3.176-.611 4.725-1.916-.043 3.617-1.08 4.962-6.354 5.21l-.385.018 1.516 3.37.174-.007c6.73-.212 9.353-2.782 9.353-9.172v-17.688h-4.303zm-4.031 16.18c-2.736 0-4.066-2.196-4.066-6.711 0-3.893 1.319-5.865 3.922-5.865 1.715 0 3.433 1.257 4.25 2.27l.057 7.944c-1.177 1.477-2.731 2.362-4.163 2.362zm20.793-16.583c-5.363 0-8.695 3.951-8.695 10.313 0 6.051 3.531 10.276 8.588 10.276 2.799 0 4.966-.827 6.821-2.604l.188-.179-2.573-2.78-.188.141c-1.389 1.028-2.629 1.489-4.025 1.489-2.448 0-4.134-1.774-4.548-4.763h12.436l.255-.2.024-.235c.038-.399.089-.945.089-1.549-.004-6.021-3.289-9.909-8.372-9.909zm-.256 3.932c3.136 0 4.062 2.287 4.267 4.323h-8.37c.377-2.79 1.83-4.323 4.103-4.323z" fill="#D92231"/><path fill="#FFF" d="M208.604 186.772l20.406 1.697-18.711-22.106-20.409-1.704-1.702 20.41 18.719 22.117zm-122.028-44.03L74.9 159.575l28.506-5.156 11.676-16.834-16.832-11.672-28.506 5.156zm25.769 44.189l1.872 20.396 18.526-22.271-1.873-20.394-20.402 1.87-18.522 22.274zm121.866-44.509l16.718-11.821-28.543-4.906-16.731 11.821 11.821 16.727 28.55 4.904zm-48.428-83.363l-8.738-18.522-9.79 27.269 8.742 18.529 18.531-8.739 9.782-27.272zm-51.377-.034L115.8 50.447l10.033 27.182 18.603 8.573 8.573-18.604-10.026-27.171zm25.809 145.785l14.556 14.419-.133-28.974-14.545-14.414-14.425 14.55.128 28.969zM225.26 92.155l5.208-19.805-25.019 14.588-5.212 19.814 19.806 5.215 25.028-14.59zm-130.028.29L75.47 97.826l25.154 14.378 19.759-5.386-5.386-19.764L89.839 72.68z"/></svg>