<svg version="1.1" xmlns="http://www.w3.org/2000/svg" viewBox="-2223.3290534935713 -1496.704035949707 3767.5211227379564 2275.584036254883"><desc>Created with Snap</desc><defs></defs><g><rect x="-2223.3290534935713" y="-1496.704035949707" width="3767.5211227379564" height="2275.584036254883" fill="#000000" style=""></rect><g transform="matrix(18.4573,0,0,18.4573,-2008.4161,-1281.7724)"><g transform="translate(0,-952.36218)"><path style="" d="m 45.719885,957.36164 3.18651,38.66594 c -0.0104,0.002 -0.0207,0.005 -0.0312,0.007 -0.004,7.7e-4 -0.008,0.002 -0.0117,0.003 -0.0463,0.009 -0.093,0.0154 -0.13911,0.0247 -0.004,7.6e-4 -0.008,0.002 -0.0116,0.003 -0.0493,0.01 -0.0979,0.0214 -0.14692,0.0325 -0.006,9.5e-4 -0.0104,0.003 -0.0156,0.004 -0.2469,0.0566 -0.49069,0.12668 -0.72935,0.21192 -0.0121,0.005 -0.0243,0.009 -0.0364,0.013 -0.0131,0.005 -0.026,0.009 -0.039,0.0143 l -16.53063,-35.06206 -7.4261,4.25388 22.0885,31.88727 c -0.0888,0.0738 -0.17625,0.14988 -0.26131,0.22881 -0.007,0.007 -0.0138,0.013 -0.0208,0.0195 -0.0278,0.026 -0.0546,0.0528 -0.082,0.0793 -0.0108,0.0104 -0.0218,0.0207 -0.0325,0.0312 -0.027,0.0265 -0.054,0.0535 -0.0806,0.0806 -0.12959,0.13168 -0.25391,0.2685 -0.37052,0.40953 l -31.84697,-22.10018 -4.30459,7.3975 35.07899,16.57354 c -0.003,0.01 -0.006,0.016 -0.009,0.025 -0.0102,0.028 -0.0201,0.055 -0.0299,0.083 -0.004,0.012 -0.008,0.023 -0.0116,0.035 -0.01,0.029 -0.0205,0.057 -0.0299,0.086 -0.008,0.023 -0.0149,0.046 -0.0221,0.069 -0.0107,0.034 -0.0211,0.068 -0.0312,0.1014 -0.005,0.015 -0.009,0.029 -0.013,0.044 -0.009,0.032 -0.0187,0.063 -0.0273,0.095 -0.005,0.019 -0.009,0.037 -0.0143,0.056 -0.007,0.023 -0.0123,0.047 -0.0182,0.07 -0.004,0.015 -0.007,0.029 -0.0104,0.044 -0.0341,0.1397 -0.0639,0.2792 -0.0884,0.4199 l -38.65164,-3.1839 0.0299,8.5572 38.61653,-3.2138 c 0.0675,0.4021 0.1727,0.7969 0.31462,1.1792 l -35.06208,16.5293 4.25389,7.4274 31.88726,-22.0898 c 0.25307,0.3044 0.53719,0.5885 0.85027,0.8463 l -22.10152,31.8496 7.3975,4.3046 16.57354,-35.0803 c 0.37654,0.1391 0.76017,0.2403 1.14668,0.3055 l -3.18652,38.6634 8.55848,-0.03 -3.21511,-38.6374 c 0.0264,-0 0.053,-0.01 0.0793,-0.014 0.0321,-0.01 0.0642,-0.012 0.0962,-0.018 0.0335,-0.01 0.0668,-0.014 0.10011,-0.021 0.29999,-0.063 0.59199,-0.1459 0.87496,-0.2496 l 16.57481,35.0816 7.39621,-4.3046 -22.1015,-31.8496 c 0.30851,-0.2541 0.59265,-0.5371 0.84895,-0.8437 l 31.88727,22.0898 4.25388,-7.4274 -35.05427,-16.5268 c 0.14193,-0.3794 0.24892,-0.7761 0.31722,-1.1856 l 38.63343,3.2151 0.0299,-8.55722 -38.66854,3.18522 c -0.0674,-0.3924 -0.17038,-0.773 -0.30551,-1.1376 l 35.06857,-16.56831 -4.30458,-7.3975 -31.84437,22.0989 c -0.0287,-0.0346 -0.0565,-0.0688 -0.0858,-0.1027 -0.10171,-0.11774 -0.20865,-0.23059 -0.31853,-0.34063 -9.4e-4,-9.5e-4 -0.002,-0.003 -0.003,-0.004 -0.0341,-0.0341 -0.0691,-0.068 -0.104,-0.10142 -0.002,-0.002 -0.005,-0.005 -0.007,-0.007 -0.035,-0.0333 -0.071,-0.0663 -0.10661,-0.0988 -0.002,-0.002 -0.004,-0.005 -0.007,-0.007 -0.0357,-0.0325 -0.0714,-0.0633 -0.10791,-0.0949 -0.002,-0.002 -0.004,-0.005 -0.007,-0.007 -0.0335,-0.0291 -0.0686,-0.0575 -0.1027,-0.0858 l 22.08718,-31.88469 -7.42611,-4.25387 -16.52802,35.05687 c -0.37416,-0.13875 -0.76416,-0.24216 -1.16748,-0.30943 l 3.2151,-38.63342 -8.55848,-0.0299 z" fill="#ffffff" fill-opacity="1" fill-rule="nonzero" stroke="none"></path></g><desc>Created with Snap</desc><defs></defs></g><g><g transform="matrix(1.024,0,0,-1.024,0,0)"><path d="M325 11Q375 11 413 38Q452 65 452 119Q452 174 410 203Q369 232 292 253Q216 275 181 291Q147 307 116 333Q54 385 54 494Q54 583 117 647Q181 711 291 711Q344 711 401 695Q459 680 473 680Q487 680 498 700L509 700L516 498L500 498Q452 585 399 637Q347 690 285 690Q224 690 190 661Q156 633 156 585Q156 538 196 512Q237 487 296 471Q355 455 373 449Q392 443 419 432Q447 422 464 410Q482 399 501 381Q521 364 532 343Q559 295 559 229Q559 121 491 55Q424 -10 314 -10Q257 -10 183 5Q110 20 102 20Q88 20 75 -10L61 -10L51 228L68 228Q112 141 180 76Q249 11 325 11ZM615 681L615 700L909 700Q1060 700 1134 656Q1208 613 1208 501Q1208 377 1118 330Q1034 287 883 287L875 287L875 19L1000 19L1000 0L615 0L615 19L680 19L680 681L615 681ZM902 681L875 681L875 306L896 306Q956 306 979 347Q1002 388 1002 480L1002 528Q1002 613 980 647Q959 681 902 681Z" fill="#ffffff" style=""></path></g></g></g></svg>